<?xml version="1.0" encoding="UTF-8" standalone="yes"?>
<svg xmlns="http://www.w3.org/2000/svg" viewBox="0 0 64 64" width="100" height="100" fill="#ffffff">
  <path d="M 5 10 C 3.347656 10 2 11.347656 2 13 L 2 49 C 2 50.652344 3.347656 52 5 52 L 59 52 C 60.652344 52 62 50.652344 62 49 L 62 13 C 62 11.347656 60.652344 10 59 10 Z M 5 12 L 59 12 C 59.550781 12 60 12.449219 60 13 L 60 13.488281 L 33.171875 32.917969 C 32.472656 33.425781 31.527344 33.425781 30.828125 32.917969 L 4 13.488281 L 4 13 C 4 12.449219 4.449219 12 5 12 Z M 4 15.957031 L 29.65625 34.535156 C 30.355469 35.042969 31.179688 35.296875 32 35.296875 C 32.820313 35.296875 33.644531 35.042969 34.34375 34.535156 L 60 15.957031 L 60 41.21875 L 43.46875 31.144531 C 42.996094 30.855469 42.378906 31.007813 42.09375 31.480469 C 41.808594 31.953125 41.957031 32.566406 42.425781 32.855469 L 60 43.5625 L 60 49 C 60 49.550781 59.550781 50 59 50 L 5 50 C 4.449219 50 4 49.550781 4 49 L 4 43.5625 L 21.574219 32.855469 C 22.042969 32.566406 22.195313 31.949219 21.90625 31.480469 C 21.617188 31.007813 21.003906 30.855469 20.53125 31.144531 L 4 41.21875 Z M 7 44 C 6.449219 44 6 44.445313 6 45 L 6 47 C 6 47.554688 6.449219 48 7 48 C 7.550781 48 8 47.554688 8 47 L 8 45 C 8 44.445313 7.550781 44 7 44 Z M 12 44 C 11.449219 44 11 44.445313 11 45 L 11 47 C 11 47.554688 11.449219 48 12 48 C 12.550781 48 13 47.554688 13 47 L 13 45 C 13 44.445313 12.550781 44 12 44 Z M 17 44 C 16.449219 44 16 44.445313 16 45 L 16 47 C 16 47.554688 16.449219 48 17 48 C 17.550781 48 18 47.554688 18 47 L 18 45 C 18 44.445313 17.550781 44 17 44 Z M 22 44 C 21.449219 44 21 44.445313 21 45 L 21 47 C 21 47.554688 21.449219 48 22 48 C 22.550781 48 23 47.554688 23 47 L 23 45 C 23 44.445313 22.550781 44 22 44 Z M 27 44 C 26.449219 44 26 44.445313 26 45 L 26 47 C 26 47.554688 26.449219 48 27 48 C 27.550781 48 28 47.554688 28 47 L 28 45 C 28 44.445313 27.550781 44 27 44 Z M 32 44 C 31.449219 44 31 44.445313 31 45 L 31 47 C 31 47.554688 31.449219 48 32 48 C 32.550781 48 33 47.554688 33 47 L 33 45 C 33 44.445313 32.550781 44 32 44 Z M 37 44 C 36.449219 44 36 44.445313 36 45 L 36 47 C 36 47.554688 36.449219 48 37 48 C 37.550781 48 38 47.554688 38 47 L 38 45 C 38 44.445313 37.550781 44 37 44 Z M 42 44 C 41.449219 44 41 44.445313 41 45 L 41 47 C 41 47.554688 41.449219 48 42 48 C 42.550781 48 43 47.554688 43 47 L 43 45 C 43 44.445313 42.550781 44 42 44 Z M 47 44 C 46.449219 44 46 44.445313 46 45 L 46 47 C 46 47.554688 46.449219 48 47 48 C 47.550781 48 48 47.554688 48 47 L 48 45 C 48 44.445313 47.550781 44 47 44 Z M 52 44 C 51.449219 44 51 44.445313 51 45 L 51 47 C 51 47.554688 51.449219 48 52 48 C 52.550781 48 53 47.554688 53 47 L 53 45 C 53 44.445313 52.550781 44 52 44 Z M 57 44 C 56.449219 44 56 44.445313 56 45 L 56 47 C 56 47.554688 56.449219 48 57 48 C 57.550781 48 58 47.554688 58 47 L 58 45 C 58 44.445313 57.550781 44 57 44 Z"/>
</svg>