<?xml version="1.0" encoding="UTF-8" standalone="yes"?>
<svg xmlns="http://www.w3.org/2000/svg" viewBox="0 0 80 80" width="100" height="100" fill="#ffffff">
  <path d="M 40.001953 7.0019531 C 21.788401 7.0019534 7.0019534 21.788401 7.0019531 40.001953 C 7.0019531 58.215505 21.788401 73.001953 40.001953 73.001953 C 58.215505 73.001953 73.001953 58.215505 73.001953 40.001953 C 73.001953 21.788401 58.215505 7.0019531 40.001953 7.0019531 z M 40.001953 9.0019531 C 57.134625 9.0019531 71.001953 22.869281 71.001953 40.001953 C 71.001953 57.134625 57.134625 71.001953 40.001953 71.001953 C 22.869281 71.001953 9.0019531 57.134625 9.0019531 40.001953 C 9.0019534 22.869282 22.869282 9.0019534 40.001953 9.0019531 z M 40.054688 12 A 1 1 0 0 0 39.054688 13 A 1 1 0 0 0 40.054688 14 A 1 1 0 0 0 41.054688 13 A 1 1 0 0 0 40.054688 12 z M 34.785156 12.509766 A 1 1 0 0 0 33.785156 13.509766 A 1 1 0 0 0 34.785156 14.509766 A 1 1 0 0 0 35.785156 13.509766 A 1 1 0 0 0 34.785156 12.509766 z M 45.318359 12.529297 A 1 1 0 0 0 44.318359 13.529297 A 1 1 0 0 0 45.318359 14.529297 A 1 1 0 0 0 46.318359 13.529297 A 1 1 0 0 0 45.318359 12.529297 z M 29.714844 14.035156 A 1 1 0 0 0 28.714844 15.035156 A 1 1 0 0 0 29.714844 16.035156 A 1 1 0 0 0 30.714844 15.035156 A 1 1 0 0 0 29.714844 14.035156 z M 50.380859 14.076172 A 1 1 0 0 0 49.380859 15.076172 A 1 1 0 0 0 50.380859 16.076172 A 1 1 0 0 0 51.380859 15.076172 A 1 1 0 0 0 50.380859 14.076172 z M 25.044922 16.521484 A 1 1 0 0 0 24.044922 17.521484 A 1 1 0 0 0 25.044922 18.521484 A 1 1 0 0 0 26.044922 17.521484 A 1 1 0 0 0 25.044922 16.521484 z M 55.044922 16.578125 A 1 1 0 0 0 54.044922 17.578125 A 1 1 0 0 0 55.044922 18.578125 A 1 1 0 0 0 56.044922 17.578125 A 1 1 0 0 0 55.044922 16.578125 z M 20.945312 19.869141 A 1 1 0 0 0 19.945312 20.869141 A 1 1 0 0 0 20.945312 21.869141 A 1 1 0 0 0 21.945312 20.869141 A 1 1 0 0 0 20.945312 19.869141 z M 59.128906 19.945312 A 1 1 0 0 0 58.128906 20.945312 A 1 1 0 0 0 59.128906 21.945312 A 1 1 0 0 0 60.128906 20.945312 A 1 1 0 0 0 59.128906 19.945312 z M 40.037109 21.001953 C 29.556586 20.980866 21.023041 29.482396 21.001953 39.962891 C 20.980866 50.443347 29.481451 58.978913 39.962891 59 C 42.675741 59.0053 45.260762 58.440093 47.599609 57.417969 L 46.798828 55.585938 C 44.707676 56.499814 42.399946 57.004728 39.966797 57 C 30.566237 56.981087 22.983041 49.366341 23.001953 39.966797 C 23.020866 30.567291 30.633726 22.983041 40.033203 23.001953 C 49.433709 23.01992 57.018913 30.634625 57 40.035156 L 57 42.699219 C 57 45.753866 54.696595 48 52.138672 48 C 49.558449 48 46.995153 45.750585 47 43.140625 L 47 43.138672 L 47 42 L 47 39 L 47 31 L 45 31 L 45 33.728516 C 43.532053 32.06033 41.387966 31 39 31 C 34.593562 31 31 34.593562 31 39 L 31 42 C 31 46.406438 34.593562 50 39 50 C 41.862748 50 44.375003 48.478048 45.789062 46.207031 C 47.013254 48.4723 49.508937 50 52.138672 50 C 55.858749 50 59 46.772572 59 42.699219 L 59 40.039062 L 59 40.037109 C 59.020009 29.556596 50.517942 21.021985 40.037109 21.001953 z M 17.580078 23.953125 A 1 1 0 0 0 16.580078 24.953125 A 1 1 0 0 0 17.580078 25.953125 A 1 1 0 0 0 18.580078 24.953125 A 1 1 0 0 0 17.580078 23.953125 z M 62.480469 24.046875 A 1 1 0 0 0 61.480469 25.046875 A 1 1 0 0 0 62.480469 26.046875 A 1 1 0 0 0 63.480469 25.046875 A 1 1 0 0 0 62.480469 24.046875 z M 15.074219 28.617188 A 1 1 0 0 0 14.074219 29.617188 A 1 1 0 0 0 15.074219 30.617188 A 1 1 0 0 0 16.074219 29.617188 A 1 1 0 0 0 15.074219 28.617188 z M 64.960938 28.71875 A 1 1 0 0 0 63.960938 29.71875 A 1 1 0 0 0 64.960938 30.71875 A 1 1 0 0 0 65.960938 29.71875 A 1 1 0 0 0 64.960938 28.71875 z M 39 33 C 42.325562 33 45 35.674438 45 39 L 45 42 C 45 45.325562 42.325562 48 39 48 C 35.674438 48 33 45.325562 33 42 L 33 39 C 33 35.674438 35.674438 33 39 33 z M 13.529297 33.679688 A 1 1 0 0 0 12.529297 34.679688 A 1 1 0 0 0 13.529297 35.679688 A 1 1 0 0 0 14.529297 34.679688 A 1 1 0 0 0 13.529297 33.679688 z M 66.492188 33.789062 A 1 1 0 0 0 65.492188 34.789062 A 1 1 0 0 0 66.492188 35.789062 A 1 1 0 0 0 67.492188 34.789062 A 1 1 0 0 0 66.492188 33.789062 z M 13 38.947266 A 1 1 0 0 0 12 39.947266 A 1 1 0 0 0 13 40.947266 A 1 1 0 0 0 14 39.947266 A 1 1 0 0 0 13 38.947266 z M 67.001953 39.054688 A 1 1 0 0 0 66.001953 40.054688 A 1 1 0 0 0 67.001953 41.054688 A 1 1 0 0 0 68.001953 40.054688 A 1 1 0 0 0 67.001953 39.054688 z M 13.507812 44.216797 A 1 1 0 0 0 12.507812 45.216797 A 1 1 0 0 0 13.507812 46.216797 A 1 1 0 0 0 14.507812 45.216797 A 1 1 0 0 0 13.507812 44.216797 z M 66.46875 44.318359 A 1 1 0 0 0 65.46875 45.318359 A 1 1 0 0 0 66.46875 46.318359 A 1 1 0 0 0 67.46875 45.318359 A 1 1 0 0 0 66.46875 44.318359 z M 15.03125 49.28125 A 1 1 0 0 0 14.03125 50.28125 A 1 1 0 0 0 15.03125 51.28125 A 1 1 0 0 0 16.03125 50.28125 A 1 1 0 0 0 15.03125 49.28125 z M 64.921875 49.382812 A 1 1 0 0 0 63.921875 50.382812 A 1 1 0 0 0 64.921875 51.382812 A 1 1 0 0 0 65.921875 50.382812 A 1 1 0 0 0 64.921875 49.382812 z M 17.521484 53.957031 A 1 1 0 0 0 16.521484 54.957031 A 1 1 0 0 0 17.521484 55.957031 A 1 1 0 0 0 18.521484 54.957031 A 1 1 0 0 0 17.521484 53.957031 z M 62.421875 54.042969 A 1 1 0 0 0 61.421875 55.042969 A 1 1 0 0 0 62.421875 56.042969 A 1 1 0 0 0 63.421875 55.042969 A 1 1 0 0 0 62.421875 54.042969 z M 20.869141 58.054688 A 1 1 0 0 0 19.869141 59.054688 A 1 1 0 0 0 20.869141 60.054688 A 1 1 0 0 0 21.869141 59.054688 A 1 1 0 0 0 20.869141 58.054688 z M 59.054688 58.128906 A 1 1 0 0 0 58.054688 59.128906 A 1 1 0 0 0 59.054688 60.128906 A 1 1 0 0 0 60.054688 59.128906 A 1 1 0 0 0 59.054688 58.128906 z M 24.957031 61.417969 A 1 1 0 0 0 23.957031 62.417969 A 1 1 0 0 0 24.957031 63.417969 A 1 1 0 0 0 25.957031 62.417969 A 1 1 0 0 0 24.957031 61.417969 z M 54.955078 61.482422 A 1 1 0 0 0 53.955078 62.482422 A 1 1 0 0 0 54.955078 63.482422 A 1 1 0 0 0 55.955078 62.482422 A 1 1 0 0 0 54.955078 61.482422 z M 29.615234 63.923828 A 1 1 0 0 0 28.615234 64.923828 A 1 1 0 0 0 29.615234 65.923828 A 1 1 0 0 0 30.615234 64.923828 A 1 1 0 0 0 29.615234 63.923828 z M 50.277344 63.964844 A 1 1 0 0 0 49.277344 64.964844 A 1 1 0 0 0 50.277344 65.964844 A 1 1 0 0 0 51.277344 64.964844 A 1 1 0 0 0 50.277344 63.964844 z M 34.679688 65.46875 A 1 1 0 0 0 33.679688 66.46875 A 1 1 0 0 0 34.679688 67.46875 A 1 1 0 0 0 35.679688 66.46875 A 1 1 0 0 0 34.679688 65.46875 z M 45.214844 65.496094 A 1 1 0 0 0 44.214844 66.496094 A 1 1 0 0 0 45.214844 67.496094 A 1 1 0 0 0 46.214844 66.496094 A 1 1 0 0 0 45.214844 65.496094 z M 39.947266 66.001953 A 1 1 0 0 0 38.947266 67.001953 A 1 1 0 0 0 39.947266 68.001953 A 1 1 0 0 0 40.947266 67.001953 A 1 1 0 0 0 39.947266 66.001953 z"/>
</svg>