<?xml version="1.0" encoding="UTF-8" standalone="yes"?>
<svg xmlns="http://www.w3.org/2000/svg" viewBox="0 0 80 80" width="100" height="100" fill="#ffffff">
  <path d="M 40.0625 7 C 21.847656 6.964844 7.035156 21.722656 7 39.9375 C 6.964844 58.152344 21.722656 72.964844 39.9375 73 C 58.152344 73.035156 72.964844 58.277344 73 40.0625 C 73.035156 21.847656 58.277344 7.035156 40.0625 7 Z M 40.058594 9 C 57.191406 9.03125 71.03125 22.925781 71 40.058594 C 70.96875 57.191406 57.074219 71.03125 39.941406 71 C 22.808594 70.96875 8.96875 57.074219 9 39.941406 C 9.03125 22.808594 22.925781 8.96875 40.058594 9 Z M 40.058594 12 C 39.503906 12 39.054688 12.445313 39.054688 13 C 39.054688 13.550781 39.5 14 40.050781 14 C 40.605469 14 41.054688 13.554688 41.054688 13 C 41.054688 12.449219 40.609375 12 40.058594 12 Z M 34.792969 12.511719 C 34.722656 12.507813 34.65625 12.515625 34.59375 12.53125 C 34.050781 12.636719 33.699219 13.160156 33.804688 13.703125 C 33.910156 14.246094 34.4375 14.597656 34.980469 14.488281 C 35.519531 14.382813 35.871094 13.859375 35.765625 13.316406 C 35.671875 12.851563 35.265625 12.511719 34.792969 12.511719 Z M 45.34375 12.53125 C 44.859375 12.515625 44.433594 12.855469 44.339844 13.332031 C 44.230469 13.875 44.578125 14.402344 45.121094 14.511719 C 45.664063 14.617188 46.191406 14.269531 46.296875 13.726563 C 46.40625 13.183594 46.058594 12.65625 45.515625 12.546875 C 45.460938 12.539063 45.402344 12.53125 45.34375 12.53125 Z M 29.726563 14.035156 C 29.59375 14.035156 29.460938 14.0625 29.335938 14.109375 C 29.089844 14.210938 28.894531 14.40625 28.792969 14.652344 C 28.691406 14.898438 28.691406 15.171875 28.792969 15.417969 C 29.003906 15.929688 29.585938 16.171875 30.097656 15.960938 C 30.609375 15.75 30.851563 15.167969 30.640625 14.65625 C 30.488281 14.285156 30.128906 14.042969 29.726563 14.035156 Z M 50.40625 14.078125 C 49.992188 14.066406 49.617188 14.3125 49.457031 14.691406 C 49.355469 14.9375 49.355469 15.210938 49.457031 15.457031 C 49.554688 15.703125 49.75 15.898438 49.996094 16 C 50.242188 16.101563 50.515625 16.101563 50.761719 16 C 51.007813 15.902344 51.203125 15.707031 51.304688 15.460938 C 51.515625 14.953125 51.273438 14.367188 50.765625 14.15625 C 50.652344 14.105469 50.527344 14.078125 50.40625 14.078125 Z M 25.058594 16.519531 C 24.855469 16.519531 24.660156 16.578125 24.488281 16.6875 C 24.03125 16.996094 23.90625 17.617188 24.214844 18.078125 C 24.519531 18.535156 25.140625 18.660156 25.597656 18.355469 C 26.058594 18.050781 26.183594 17.429688 25.875 16.96875 C 25.695313 16.695313 25.386719 16.527344 25.058594 16.519531 Z M 55.0625 16.578125 C 54.722656 16.570313 54.402344 16.738281 54.214844 17.019531 C 53.90625 17.480469 54.027344 18.101563 54.484375 18.40625 C 54.707031 18.554688 54.976563 18.609375 55.238281 18.558594 C 55.496094 18.507813 55.726563 18.355469 55.875 18.136719 C 56.183594 17.675781 56.058594 17.054688 55.601563 16.75 C 55.441406 16.640625 55.257813 16.582031 55.0625 16.578125 Z M 20.964844 19.871094 C 20.691406 19.867188 20.433594 19.972656 20.238281 20.160156 C 19.847656 20.550781 19.847656 21.183594 20.238281 21.578125 C 20.628906 21.96875 21.261719 21.96875 21.652344 21.578125 C 22.042969 21.1875 22.042969 20.554688 21.65625 20.164063 C 21.46875 19.980469 21.222656 19.875 20.964844 19.871094 Z M 59.144531 19.949219 C 58.875 19.941406 58.617188 20.046875 58.421875 20.238281 C 58.03125 20.628906 58.03125 21.261719 58.421875 21.652344 C 58.605469 21.839844 58.863281 21.945313 59.128906 21.945313 C 59.394531 21.949219 59.648438 21.84375 59.835938 21.65625 C 60.226563 21.265625 60.226563 20.632813 59.839844 20.238281 C 59.652344 20.054688 59.40625 19.953125 59.144531 19.949219 Z M 17.601563 23.953125 C 17.261719 23.949219 16.941406 24.113281 16.75 24.394531 C 16.601563 24.617188 16.546875 24.886719 16.597656 25.148438 C 16.648438 25.40625 16.804688 25.636719 17.023438 25.785156 C 17.242188 25.933594 17.515625 25.988281 17.773438 25.9375 C 18.035156 25.886719 18.265625 25.730469 18.410156 25.511719 C 18.71875 25.054688 18.597656 24.433594 18.140625 24.125 C 17.980469 24.019531 17.792969 23.960938 17.601563 23.953125 Z M 62.496094 24.046875 C 62.292969 24.042969 62.09375 24.101563 61.925781 24.214844 C 61.464844 24.519531 61.34375 25.140625 61.648438 25.597656 C 61.953125 26.058594 62.574219 26.183594 63.03125 25.878906 C 63.492188 25.574219 63.617188 24.953125 63.3125 24.492188 C 63.128906 24.21875 62.824219 24.050781 62.496094 24.046875 Z M 39.25 26.726563 C 30.796875 26.726563 25 32.539063 25 41.007813 C 25 49.679688 30.679688 55.273438 39.535156 55.277344 C 41.570313 55.277344 43.523438 55 44.996094 54.519531 L 44.996094 52.09375 C 43.96875 52.519531 41.8125 52.8125 39.65625 52.8125 C 32.351563 52.8125 27.667969 48.242188 27.667969 41.09375 C 27.667969 34.097656 32.40625 29.15625 39.058594 29.15625 C 45.78125 29.15625 50.328125 33.292969 50.328125 39.484375 C 50.328125 43.371094 49.046875 45.863281 47.03125 45.863281 C 45.867188 45.863281 45.21875 45.148438 45.21875 43.953125 L 45.21875 34.339844 L 42.308594 34.339844 L 42.308594 36.40625 L 42.019531 36.40625 C 41.351563 34.902344 39.828125 33.980469 38.03125 33.980469 C 34.542969 33.980469 32.152344 36.871094 32.152344 41.027344 C 32.152344 45.351563 34.527344 48.261719 38.085938 48.261719 C 40.089844 48.261719 41.574219 47.320313 42.292969 45.59375 L 42.582031 45.59375 C 42.855469 47.25 44.414063 48.363281 46.46875 48.363281 C 50.46875 48.363281 53 44.890625 53 39.382813 C 53 31.890625 47.375 26.726563 39.25 26.726563 Z M 15.097656 28.617188 C 14.6875 28.605469 14.3125 28.851563 14.152344 29.234375 C 14.050781 29.476563 14.050781 29.753906 14.152344 30 C 14.25 30.242188 14.445313 30.4375 14.691406 30.542969 C 15.199219 30.753906 15.785156 30.511719 16 30 C 16.101563 29.757813 16.101563 29.480469 16 29.234375 C 15.898438 28.992188 15.703125 28.796875 15.457031 28.691406 C 15.34375 28.644531 15.222656 28.621094 15.097656 28.617188 Z M 64.972656 28.71875 C 64.839844 28.71875 64.707031 28.746094 64.582031 28.796875 C 64.074219 29.007813 63.828125 29.589844 64.039063 30.101563 C 64.140625 30.347656 64.335938 30.542969 64.578125 30.644531 C 64.824219 30.746094 65.101563 30.746094 65.34375 30.644531 C 65.855469 30.433594 66.097656 29.851563 65.890625 29.339844 C 65.734375 28.96875 65.375 28.726563 64.972656 28.71875 Z M 13.558594 33.679688 C 13.070313 33.664063 12.644531 34.003906 12.546875 34.484375 C 12.496094 34.742188 12.546875 35.011719 12.695313 35.234375 C 12.84375 35.453125 13.070313 35.609375 13.332031 35.660156 C 13.871094 35.769531 14.398438 35.417969 14.507813 34.875 C 14.617188 34.335938 14.265625 33.808594 13.722656 33.699219 C 13.667969 33.6875 13.613281 33.679688 13.558594 33.679688 Z M 66.5 33.789063 C 66.429688 33.789063 66.363281 33.792969 66.296875 33.808594 C 66.039063 33.859375 65.808594 34.011719 65.660156 34.230469 C 65.515625 34.453125 65.460938 34.722656 65.511719 34.984375 C 65.617188 35.523438 66.144531 35.875 66.6875 35.769531 C 67.226563 35.664063 67.578125 35.136719 67.472656 34.59375 C 67.378906 34.128906 66.972656 33.792969 66.5 33.789063 Z M 38.667969 36.714844 C 40.804688 36.714844 42.171875 38.390625 42.171875 41.09375 C 42.171875 43.796875 40.804688 45.507813 38.632813 45.507813 C 36.5625 45.507813 35.296875 43.847656 35.296875 41.09375 C 35.296875 38.339844 36.546875 36.714844 38.667969 36.714844 Z M 13 38.945313 C 12.449219 38.945313 12 39.390625 12 39.941406 C 12 40.496094 12.445313 40.945313 13 40.945313 C 13.550781 40.945313 14 40.5 14 39.949219 C 14 39.394531 13.554688 38.945313 13 38.945313 Z M 67 39.050781 C 66.449219 39.050781 66.003906 39.5 66 40.050781 C 66 40.601563 66.449219 41.050781 67 41.050781 C 67.550781 41.054688 68 40.605469 68 40.054688 C 68.003906 39.789063 67.898438 39.535156 67.710938 39.347656 C 67.523438 39.160156 67.265625 39.050781 67 39.050781 Z M 13.511719 44.21875 C 13.445313 44.214844 13.378906 44.222656 13.3125 44.234375 C 12.773438 44.34375 12.417969 44.867188 12.527344 45.410156 C 12.632813 45.953125 13.15625 46.304688 13.699219 46.199219 C 14.242188 46.089844 14.59375 45.566406 14.488281 45.023438 C 14.394531 44.554688 13.988281 44.21875 13.511719 44.21875 Z M 66.496094 44.316406 C 66.011719 44.304688 65.585938 44.644531 65.488281 45.121094 C 65.378906 45.660156 65.730469 46.1875 66.269531 46.296875 C 66.8125 46.40625 67.339844 46.054688 67.449219 45.515625 C 67.558594 44.972656 67.207031 44.445313 66.667969 44.335938 C 66.609375 44.324219 66.554688 44.320313 66.496094 44.316406 Z M 15.042969 49.285156 C 14.910156 49.285156 14.777344 49.308594 14.652344 49.359375 C 14.40625 49.460938 14.210938 49.65625 14.109375 49.898438 C 14.007813 50.144531 14.007813 50.421875 14.109375 50.667969 C 14.207031 50.910156 14.402344 51.105469 14.648438 51.207031 C 14.894531 51.308594 15.167969 51.308594 15.414063 51.207031 C 15.925781 51 16.167969 50.414063 15.957031 49.90625 C 15.804688 49.53125 15.445313 49.289063 15.042969 49.285156 Z M 64.945313 49.382813 C 64.53125 49.371094 64.15625 49.617188 64 50 C 63.785156 50.507813 64.027344 51.09375 64.535156 51.304688 C 65.046875 51.515625 65.628906 51.277344 65.84375 50.765625 C 66.058594 50.257813 65.816406 49.671875 65.308594 49.457031 C 65.191406 49.410156 65.070313 49.386719 64.945313 49.382813 Z M 17.53125 53.957031 C 17.332031 53.953125 17.132813 54.011719 16.96875 54.125 C 16.507813 54.429688 16.382813 55.050781 16.6875 55.511719 C 16.992188 55.972656 17.613281 56.09375 18.074219 55.789063 C 18.53125 55.484375 18.65625 54.863281 18.355469 54.40625 C 18.171875 54.128906 17.863281 53.960938 17.53125 53.957031 Z M 62.441406 54.042969 C 62.101563 54.035156 61.78125 54.199219 61.589844 54.484375 C 61.28125 54.941406 61.40625 55.5625 61.863281 55.871094 C 62.320313 56.179688 62.941406 56.058594 63.25 55.597656 C 63.398438 55.378906 63.453125 55.109375 63.402344 54.847656 C 63.351563 54.589844 63.195313 54.359375 62.976563 54.210938 C 62.816406 54.105469 62.632813 54.046875 62.441406 54.042969 Z M 20.886719 58.054688 C 20.617188 58.050781 20.355469 58.15625 20.164063 58.34375 C 19.773438 58.734375 19.773438 59.367188 20.160156 59.761719 C 20.550781 60.152344 21.183594 60.152344 21.578125 59.761719 C 21.96875 59.371094 21.96875 58.738281 21.578125 58.347656 C 21.394531 58.164063 21.148438 58.058594 20.886719 58.054688 Z M 59.070313 58.128906 C 58.800781 58.125 58.539063 58.230469 58.347656 58.421875 C 58.160156 58.605469 58.054688 58.863281 58.054688 59.128906 C 58.050781 59.394531 58.15625 59.648438 58.34375 59.835938 C 58.734375 60.226563 59.367188 60.226563 59.761719 59.839844 C 60.152344 59.449219 60.152344 58.816406 59.761719 58.421875 C 59.578125 58.238281 59.332031 58.132813 59.070313 58.128906 Z M 24.976563 61.417969 C 24.636719 61.410156 24.316406 61.578125 24.125 61.859375 C 23.820313 62.320313 23.941406 62.941406 24.402344 63.25 C 24.859375 63.554688 25.480469 63.433594 25.785156 62.972656 C 26.09375 62.515625 25.972656 61.894531 25.515625 61.589844 C 25.355469 61.480469 25.167969 61.421875 24.976563 61.417969 Z M 54.96875 61.484375 C 54.765625 61.480469 54.570313 61.539063 54.402344 61.648438 C 53.941406 61.953125 53.816406 62.574219 54.125 63.035156 C 54.429688 63.496094 55.050781 63.621094 55.511719 63.3125 C 55.96875 63.007813 56.09375 62.386719 55.789063 61.925781 C 55.605469 61.652344 55.300781 61.484375 54.96875 61.484375 Z M 29.640625 63.921875 C 29.226563 63.914063 28.851563 64.160156 28.691406 64.539063 C 28.589844 64.785156 28.589844 65.058594 28.691406 65.304688 C 28.792969 65.550781 28.988281 65.746094 29.234375 65.847656 C 29.742188 66.058594 30.328125 65.816406 30.539063 65.308594 C 30.640625 65.0625 30.640625 64.789063 30.539063 64.542969 C 30.441406 64.296875 30.246094 64.101563 30 64 C 29.886719 63.953125 29.765625 63.925781 29.640625 63.921875 Z M 50.289063 63.96875 C 50.15625 63.96875 50.023438 63.992188 49.902344 64.042969 C 49.65625 64.144531 49.460938 64.339844 49.355469 64.582031 C 49.253906 64.828125 49.253906 65.105469 49.355469 65.347656 C 49.457031 65.59375 49.652344 65.789063 49.894531 65.890625 C 50.140625 65.992188 50.417969 65.992188 50.660156 65.890625 C 51.171875 65.683594 51.414063 65.097656 51.203125 64.589844 C 51.050781 64.214844 50.691406 63.972656 50.289063 63.96875 Z M 34.707031 65.46875 C 34.21875 65.457031 33.796875 65.792969 33.699219 66.269531 C 33.589844 66.8125 33.941406 67.339844 34.484375 67.449219 C 35.023438 67.558594 35.550781 67.207031 35.660156 66.667969 C 35.769531 66.125 35.417969 65.597656 34.875 65.488281 C 34.820313 65.476563 34.765625 65.46875 34.707031 65.46875 Z M 45.21875 65.496094 C 45.152344 65.496094 45.085938 65.5 45.019531 65.515625 C 44.761719 65.566406 44.53125 65.71875 44.382813 65.9375 C 44.234375 66.160156 44.179688 66.429688 44.234375 66.6875 C 44.339844 67.230469 44.863281 67.582031 45.40625 67.476563 C 45.949219 67.371094 46.300781 66.84375 46.195313 66.300781 C 46.101563 65.835938 45.695313 65.5 45.21875 65.496094 Z M 39.949219 66 C 39.398438 66 38.949219 66.449219 38.949219 67 C 38.945313 67.550781 39.394531 68 39.945313 68 C 40.210938 68.003906 40.464844 67.898438 40.652344 67.710938 C 40.839844 67.523438 40.949219 67.265625 40.949219 67 C 40.949219 66.449219 40.5 66.003906 39.949219 66 Z"/>
</svg>